<?xml version="1.0" encoding="UTF-8" standalone="no"?>
<!DOCTYPE svg PUBLIC "-//W3C//DTD SVG 1.1//EN" "http://www.w3.org/Graphics/SVG/1.1/DTD/svg11.dtd">
<svg width="100%" height="100%" viewBox="0 0 169 139" version="1.1" xmlns="http://www.w3.org/2000/svg" xmlns:xlink="http://www.w3.org/1999/xlink" xml:space="preserve" xmlns:serif="http://www.serif.com/" style="fill-rule:evenodd;clip-rule:evenodd;stroke-miterlimit:10;">
    <g transform="matrix(4.16667,0,0,4.16667,134.767,104.033)">
        <path d="M0,-16.675L0,-17.686L5.379,-17.686L5.379,-16.675L0,-16.675ZM-0.712,-16.675L-6.091,-16.675L-6.091,-17.686L-0.712,-17.686L-0.712,-16.675ZM-1.065,-10.338L-8.093,-10.338L-8.093,-11.805L-1.065,-11.805L-1.065,-10.338ZM-1.939,1.011L-14.959,1.011L-14.959,-9.626L-8.805,-9.626L-8.805,-6.507C-8.805,-6.311 -8.646,-6.151 -8.449,-6.151C-8.252,-6.151 -8.093,-6.311 -8.093,-6.507L-8.093,-9.626L-1.939,-9.626L-1.939,1.011ZM-15.819,-11.805L-8.805,-11.805L-8.805,-10.338L-15.819,-10.338L-15.819,-11.805ZM-29.622,-16.048L-20.169,-16.048L-20.169,-13.884L-28.836,-13.884C-28.885,-13.884 -28.931,-13.874 -28.973,-13.856L-29.622,-13.855L-29.622,-16.048ZM-10.017,-16.048L-9.986,-13.884L-10.784,-13.883C-10.786,-13.883 -10.787,-13.884 -10.789,-13.884L-19.457,-13.884L-19.457,-16.048L-10.017,-16.048ZM5.537,-18.398L-6.263,-18.398C-6.561,-18.398 -6.803,-18.149 -6.803,-17.843L-6.803,-16.504C-6.803,-16.206 -6.561,-15.963 -6.263,-15.963L-6.126,-15.963L-6.126,-12.517L-10.433,-12.517L-10.433,-13.172L-9.986,-13.172C-9.604,-13.172 -9.305,-13.472 -9.305,-13.855L-9.305,-16.091C-9.305,-16.46 -9.611,-16.761 -9.986,-16.761L-29.654,-16.761C-30.023,-16.761 -30.334,-16.454 -30.334,-16.091L-30.334,-13.855C-30.334,-13.478 -30.029,-13.172 -29.654,-13.172L-29.192,-13.172L-29.192,0.954C-29.192,1.378 -28.855,1.723 -28.442,1.723L-16.725,1.723C-16.528,1.723 -16.369,1.564 -16.369,1.367C-16.369,1.171 -16.528,1.011 -16.725,1.011L-28.442,1.011C-28.451,1.011 -28.48,0.99 -28.48,0.954L-28.48,-13.172L-20.169,-13.172L-20.169,-6.08C-20.169,-5.884 -20.009,-5.724 -19.813,-5.724C-19.616,-5.724 -19.457,-5.884 -19.457,-6.08L-19.457,-13.172L-11.145,-13.172L-11.145,-12.517L-15.936,-12.517C-16.264,-12.517 -16.531,-12.249 -16.531,-11.919L-16.531,-10.224C-16.531,-9.894 -16.264,-9.626 -15.936,-9.626L-15.671,-9.626L-15.671,1.054C-15.671,1.423 -15.372,1.723 -15.005,1.723L-1.879,1.723C-1.519,1.723 -1.226,1.423 -1.226,1.054L-1.226,-9.626L-0.948,-9.626C-0.62,-9.626 -0.353,-9.894 -0.353,-10.224L-0.353,-11.919C-0.353,-12.249 -0.62,-12.517 -0.948,-12.517L-5.414,-12.517L-5.414,-15.963L-0.712,-15.963L-0.712,-14.61C-0.712,-14.414 -0.553,-14.254 -0.356,-14.254C-0.159,-14.254 0,-14.414 0,-14.61L0,-15.963L4.702,-15.963L4.702,1.011L-0.356,1.011C-0.553,1.011 -0.712,1.171 -0.712,1.367C-0.712,1.564 -0.553,1.723 -0.356,1.723L4.804,1.723C5.14,1.723 5.414,1.455 5.414,1.125L5.414,-15.963L5.537,-15.963C5.842,-15.963 6.091,-16.206 6.091,-16.504L6.091,-17.843C6.091,-18.154 5.848,-18.398 5.537,-18.398Z" style="fill:rgb(228,29,44);fill-rule:nonzero;stroke:rgb(228,29,44);stroke-width:0.4px;"/>
    </g>
</svg>
