<?xml version="1.0" encoding="UTF-8" standalone="no"?>
<!DOCTYPE svg PUBLIC "-//W3C//DTD SVG 1.1//EN" "http://www.w3.org/Graphics/SVG/1.1/DTD/svg11.dtd">
<svg width="100%" height="100%" viewBox="0 0 90 84" version="1.1" xmlns="http://www.w3.org/2000/svg" xmlns:xlink="http://www.w3.org/1999/xlink" xml:space="preserve" xmlns:serif="http://www.serif.com/" style="fill-rule:evenodd;clip-rule:evenodd;stroke-linejoin:round;stroke-miterlimit:2;">
    <g transform="matrix(4.16667,0,0,4.16667,86.015,65.6671)">
        <path d="M0,-4.825L0,0.508L-4.62,3.175L-4.62,-2.156L0,-4.825ZM-0.433,-5.575L-5.052,-2.907L-9.67,-5.575L-5.052,-8.24L-0.433,-5.575ZM-5.485,-2.156L-5.485,3.177L-10.105,0.509L-10.105,-4.825L-5.485,-2.156ZM0.864,-5.617L0.864,-5.63C0.857,-5.686 0.839,-5.74 0.811,-5.789C0.782,-5.839 0.742,-5.882 0.694,-5.915L0.683,-5.928L-4.837,-9.117C-4.971,-9.193 -5.135,-9.193 -5.269,-9.117L-10.758,-5.947L-10.789,-5.926L-10.789,-5.919C-10.837,-5.885 -10.877,-5.841 -10.907,-5.79C-10.939,-5.738 -10.959,-5.679 -10.965,-5.617L-10.965,0.766C-10.965,0.921 -10.883,1.064 -10.75,1.142L-5.268,4.311L-5.227,4.334L-5.212,4.334C-5.162,4.355 -5.108,4.367 -5.054,4.368C-4.996,4.368 -4.939,4.356 -4.886,4.332L-4.87,4.332L0.648,1.146C0.782,1.069 0.865,0.926 0.865,0.771L0.865,-5.568L0.864,-5.617Z" style="fill:rgb(228,29,44);fill-rule:nonzero;"/>
    </g>
    <g transform="matrix(4.16667,0,0,4.16667,79.2,11.5796)">
        <path d="M0,0.839L-18.457,0.839C-18.688,0.853 -18.887,0.677 -18.901,0.446C-18.916,0.214 -18.74,0.015 -18.508,0.001C-18.491,0 -18.474,0 -18.457,0.001L0,0.001C0.232,-0.014 0.431,0.163 0.445,0.394C0.459,0.626 0.283,0.825 0.052,0.839C0.034,0.84 0.017,0.84 0,0.839" style="fill:rgb(228,29,44);fill-rule:nonzero;"/>
    </g>
    <g transform="matrix(4.16667,0,0,4.16667,8.7625,5.84875)">
        <path d="M0,0.815C-0.225,0.815 -0.407,0.633 -0.407,0.408C-0.407,0.183 -0.225,0 0,0C0.225,0 0.407,0.183 0.407,0.408C0.407,0.633 0.225,0.815 0,0.815" style="fill:rgb(228,29,44);fill-rule:nonzero;"/>
    </g>
    <g transform="matrix(4.16667,0,0,4.16667,13.3187,5.84875)">
        <path d="M0,0.815C-0.225,0.815 -0.407,0.633 -0.407,0.408C-0.407,0.183 -0.225,0 0,0C0.225,0 0.407,0.183 0.407,0.408C0.407,0.633 0.225,0.815 0,0.815" style="fill:rgb(228,29,44);fill-rule:nonzero;"/>
    </g>
    <g transform="matrix(4.16664,0.0153373,0.0153373,-4.16664,17.8692,9.24456)">
        <path d="M0.001,-0C-0.224,0 -0.406,0.182 -0.406,0.408C-0.406,0.633 -0.223,0.814 0.001,0.815C0.226,0.815 0.408,0.634 0.409,0.409C0.409,0.183 0.226,0.001 0.001,-0" style="fill:rgb(228,29,44);fill-rule:nonzero;"/>
    </g>
    <g transform="matrix(4.16667,0,0,4.16667,33.0167,0)">
        <path d="M0,15.783L-7.086,15.783C-7.549,15.781 -7.923,15.406 -7.924,14.943L-7.924,0.838C-7.923,0.376 -7.548,0.001 -7.086,0L10.972,0C11.434,0.001 11.81,0.375 11.811,0.838L11.811,6.764C11.811,6.996 11.623,7.184 11.392,7.184C11.16,7.184 10.972,6.996 10.972,6.764L10.972,0.838L-7.086,0.838L-7.086,14.943L0,14.943C0.232,14.943 0.42,15.131 0.42,15.363C0.42,15.595 0.232,15.783 0,15.783" style="fill:rgb(228,29,44);fill-rule:nonzero;"/>
    </g>
    <g transform="matrix(4.16667,0,0,4.16667,11.7671,41.7575)">
        <path d="M0,3.132C-0.232,3.132 -0.42,2.944 -0.42,2.712L-0.42,0.42C-0.42,0.188 -0.232,0 0,0C0.232,0 0.42,0.188 0.42,0.42L0.42,2.718C0.417,2.948 0.229,3.132 0,3.132" style="fill:rgb(228,29,44);fill-rule:nonzero;"/>
    </g>
    <g transform="matrix(4.16667,0,0,4.16667,22.2467,35.6533)">
        <path d="M0,4.597C-0.231,4.596 -0.418,4.408 -0.418,4.177L-0.418,0.459C-0.433,0.228 -0.257,0.028 -0.025,0.014C0.207,0 0.406,0.176 0.42,0.408C0.421,0.425 0.421,0.442 0.42,0.459L0.42,4.183C0.417,4.413 0.229,4.597 0,4.597" style="fill:rgb(228,29,44);fill-rule:nonzero;"/>
    </g>
    <g transform="matrix(4.16667,0,0,4.16667,32.7262,27.0658)">
        <path d="M0,6.658C-0.231,6.657 -0.418,6.469 -0.418,6.238L-0.418,0.408C-0.404,0.176 -0.205,0 0.027,0.014C0.238,0.027 0.407,0.196 0.42,0.408L0.42,6.244C0.417,6.474 0.229,6.658 0,6.658" style="fill:rgb(228,29,44);fill-rule:nonzero;"/>
    </g>
</svg>
