<?xml version="1.0" encoding="UTF-8" standalone="no"?>
<!DOCTYPE svg PUBLIC "-//W3C//DTD SVG 1.1//EN" "http://www.w3.org/Graphics/SVG/1.1/DTD/svg11.dtd">
<svg width="100%" height="100%" viewBox="0 0 109 97" version="1.1" xmlns="http://www.w3.org/2000/svg" xmlns:xlink="http://www.w3.org/1999/xlink" xml:space="preserve" xmlns:serif="http://www.serif.com/" style="fill-rule:evenodd;clip-rule:evenodd;stroke-linejoin:round;stroke-miterlimit:2;">
    <g transform="matrix(4.16667,0,0,4.16667,27.8554,56.7667)">
        <path d="M0,-4.086C0,-7.53 2.802,-10.332 6.246,-10.332C9.69,-10.332 12.491,-7.53 12.491,-4.086C12.491,-0.642 9.69,2.16 6.246,2.16C2.802,2.16 0,-0.642 0,-4.086M11.595,0.632C12.707,-0.627 13.383,-2.278 13.383,-4.086C13.383,-8.022 10.181,-11.224 6.246,-11.224C2.31,-11.224 -0.892,-8.022 -0.892,-4.086C-0.892,-0.15 2.31,3.052 6.246,3.052C8.053,3.052 9.705,2.375 10.964,1.263L16.708,7.007C16.795,7.094 16.91,7.138 17.024,7.138C17.138,7.138 17.252,7.094 17.339,7.007C17.513,6.833 17.513,6.551 17.339,6.377L11.595,0.632Z" style="fill:rgb(228,29,44);fill-rule:nonzero;"/>
    </g>
    <g transform="matrix(4.16667,0,0,4.16667,10.2842,53.4542)">
        <path d="M0,-1.487C-0.246,-1.487 -0.446,-1.287 -0.446,-1.041L-0.446,-0.446C-0.446,-0.2 -0.246,0 0,0C0.246,0 0.446,-0.2 0.446,-0.446L0.446,-1.041C0.446,-1.287 0.246,-1.487 0,-1.487" style="fill:rgb(228,29,44);fill-rule:nonzero;"/>
    </g>
    <g transform="matrix(4.16667,0,0,4.16667,1.85833,53.4525)">
        <path d="M0,-2.914C-0.246,-2.914 -0.446,-2.714 -0.446,-2.468L-0.446,-0.446C-0.446,-0.199 -0.246,0 0,0C0.246,0 0.446,-0.199 0.446,-0.446L0.446,-2.468C0.446,-2.714 0.246,-2.914 0,-2.914" style="fill:rgb(228,29,44);fill-rule:nonzero;"/>
    </g>
    <g transform="matrix(4.16667,0,0,4.16667,18.9579,53.4542)">
        <path d="M0,-3.985C-0.246,-3.985 -0.446,-3.785 -0.446,-3.539L-0.446,-0.446C-0.446,-0.2 -0.246,0 0,0C0.246,0 0.446,-0.2 0.446,-0.446L0.446,-3.539C0.446,-3.785 0.246,-3.985 0,-3.985" style="fill:rgb(228,29,44);fill-rule:nonzero;"/>
    </g>
    <g transform="matrix(4.16667,0,0,4.16667,36.305,53.4521)">
        <path d="M0,-3.925C-0.246,-3.925 -0.446,-3.725 -0.446,-3.479L-0.446,-0.446C-0.446,-0.199 -0.246,0 0,0C0.246,0 0.446,-0.199 0.446,-0.446L0.446,-3.479C0.446,-3.725 0.246,-3.925 0,-3.925" style="fill:rgb(228,29,44);fill-rule:nonzero;"/>
    </g>
    <g transform="matrix(4.16667,0,0,4.16667,45.4742,53.4538)">
        <path d="M0,-4.996C-0.246,-4.996 -0.446,-4.796 -0.446,-4.55L-0.446,-0.446C-0.446,-0.2 -0.246,0 0,0C0.246,0 0.446,-0.2 0.446,-0.446L0.446,-4.55C0.446,-4.796 0.246,-4.996 0,-4.996" style="fill:rgb(228,29,44);fill-rule:nonzero;"/>
    </g>
    <g transform="matrix(4.16667,0,0,4.16667,54.6437,53.4542)">
        <path d="M0,-7.732C-0.246,-7.732 -0.446,-7.532 -0.446,-7.286L-0.446,-0.446C-0.446,-0.2 -0.246,0 0,0C0.246,0 0.446,-0.2 0.446,-0.446L0.446,-7.286C0.446,-7.532 0.246,-7.732 0,-7.732" style="fill:rgb(228,29,44);fill-rule:nonzero;"/>
    </g>
    <g transform="matrix(4.16667,0,0,4.16667,63.565,53.4542)">
        <path d="M0,-7.732C-0.246,-7.732 -0.446,-7.532 -0.446,-7.286L-0.446,-0.446C-0.446,-0.2 -0.246,0 0,0C0.246,0 0.446,-0.2 0.446,-0.446L0.446,-7.286C0.446,-7.532 0.246,-7.732 0,-7.732" style="fill:rgb(228,29,44);fill-rule:nonzero;"/>
    </g>
    <g transform="matrix(4.16667,0,0,4.16667,74.5929,38.4617)">
        <path d="M0,3.152L0,0C0,-0.247 -0.2,-0.446 -0.446,-0.446C-0.692,-0.446 -0.892,-0.247 -0.892,0L-0.892,3.152C-0.892,3.398 -0.692,3.598 -0.446,3.598C-0.2,3.598 0,3.398 0,3.152" style="fill:rgb(228,29,44);fill-rule:nonzero;"/>
    </g>
    <g transform="matrix(4.16667,0,0,4.16667,89.3379,37.8412)">
        <path d="M0,3.747C0.246,3.747 0.446,3.547 0.446,3.301L0.446,0.446C0.446,0.2 0.246,0 0,0C-0.246,0 -0.446,0.2 -0.446,0.446L-0.446,3.301C-0.446,3.547 -0.246,3.747 0,3.747" style="fill:rgb(228,29,44);fill-rule:nonzero;"/>
    </g>
    <g transform="matrix(4.16667,0,0,4.16667,98.0117,28.9204)">
        <path d="M0,5.888C0.246,5.888 0.446,5.688 0.446,5.442L0.446,0.446C0.446,0.2 0.246,0 0,0C-0.246,0 -0.446,0.2 -0.446,0.446L-0.446,5.442C-0.446,5.688 -0.246,5.888 0,5.888" style="fill:rgb(228,29,44);fill-rule:nonzero;"/>
    </g>
    <g transform="matrix(4.16667,0,0,4.16667,106.933,53.4533)">
        <path d="M0,-4.639C-0.246,-4.639 -0.446,-4.439 -0.446,-4.193L-0.446,-0.446C-0.446,-0.2 -0.246,0 0,0C0.246,0 0.446,-0.2 0.446,-0.446L0.446,-4.193C0.446,-4.439 0.246,-4.639 0,-4.639" style="fill:rgb(228,29,44);fill-rule:nonzero;"/>
    </g>
</svg>
