<?xml version="1.0" encoding="UTF-8" standalone="no"?>
<!DOCTYPE svg PUBLIC "-//W3C//DTD SVG 1.1//EN" "http://www.w3.org/Graphics/SVG/1.1/DTD/svg11.dtd">
<svg width="100%" height="100%" viewBox="0 0 99 79" version="1.1" xmlns="http://www.w3.org/2000/svg" xmlns:xlink="http://www.w3.org/1999/xlink" xml:space="preserve" xmlns:serif="http://www.serif.com/" style="fill-rule:evenodd;clip-rule:evenodd;stroke-linejoin:round;stroke-miterlimit:2;">
    <g transform="matrix(4.16667,0,0,4.16667,52.4379,62.2962)">
        <path d="M0,0.997C0.275,0.997 0.498,0.774 0.498,0.499C0.498,0.223 0.275,0 0,0L-3.854,0C-4.129,0 -4.352,0.223 -4.352,0.499C-4.352,0.774 -4.129,0.997 -3.854,0.997L0,0.997Z" style="fill:rgb(228,29,44);fill-rule:nonzero;"/>
    </g>
    <g transform="matrix(4.16667,0,0,4.16667,7.03502,62.2962)">
        <path d="M0,0.997L5.183,0.997C5.458,0.997 5.681,0.774 5.681,0.499C5.681,0.223 5.458,0 5.183,0L0,0C-0.275,0 -0.498,0.223 -0.498,0.499C-0.498,0.774 -0.275,0.997 0,0.997" style="fill:rgb(228,29,44);fill-rule:nonzero;"/>
    </g>
    <g transform="matrix(4.16667,0,0,4.16667,96.18,78.3562)">
        <path d="M0,-0.997L-1.395,-0.997C-1.671,-0.997 -1.894,-0.774 -1.894,-0.499C-1.894,-0.223 -1.671,0 -1.395,0L0,0C0.275,0 0.498,-0.223 0.498,-0.499C0.498,-0.774 0.275,-0.997 0,-0.997" style="fill:rgb(228,29,44);fill-rule:nonzero;"/>
    </g>
    <g transform="matrix(4.16667,0,0,4.16667,82.8913,78.3562)">
        <path d="M0,-0.997L-3.455,-0.997C-3.73,-0.997 -3.953,-0.774 -3.953,-0.499C-3.953,-0.223 -3.73,0 -3.455,0L0,0C0.275,0 0.498,-0.223 0.498,-0.499C0.498,-0.774 0.275,-0.997 0,-0.997" style="fill:rgb(228,29,44);fill-rule:nonzero;"/>
    </g>
    <g transform="matrix(4.16667,0,0,4.16667,60.7434,78.3562)">
        <path d="M0,-0.997L-7.84,-0.997C-8.116,-0.997 -8.339,-0.774 -8.339,-0.499C-8.339,-0.223 -8.116,0 -7.84,0L0,0C0.275,0 0.498,-0.223 0.498,-0.499C0.498,-0.774 0.275,-0.997 0,-0.997" style="fill:rgb(228,29,44);fill-rule:nonzero;"/>
    </g>
    <g transform="matrix(4.16667,0,0,4.16667,20.3238,78.3562)">
        <path d="M0,-0.997L-3.189,-0.997C-3.464,-0.997 -3.688,-0.774 -3.688,-0.499C-3.688,-0.223 -3.464,0 -3.189,0L0,0C0.275,0 0.498,-0.223 0.498,-0.499C0.498,-0.774 0.275,-0.997 0,-0.997" style="fill:rgb(228,29,44);fill-rule:nonzero;"/>
    </g>
    <g transform="matrix(4.16667,0,0,4.16667,16.0013,5.17917)">
        <path d="M0,6.877L-2.651,4.939C-0.294,1.775 3.792,-0.246 7.901,-0.246C10.045,-0.246 12.091,0.245 13.983,1.214C14.489,1.472 14.976,1.763 15.445,2.082L13.137,4.41C11.612,3.471 9.808,2.954 7.901,2.954C4.703,2.954 1.789,4.411 0,6.877M18.545,4.951L15.831,6.916C15.303,6.179 14.674,5.533 13.969,4.987L16.257,2.678C17.087,3.336 17.852,4.095 18.545,4.951M12.96,5.485C13.882,6.116 14.675,6.926 15.285,7.888C15.359,8.004 15.477,8.085 15.612,8.111C15.644,8.117 15.675,8.12 15.706,8.12C15.81,8.12 15.913,8.087 15.998,8.025L19.549,5.454C19.657,5.376 19.729,5.257 19.749,5.124C19.769,4.992 19.734,4.857 19.654,4.75C18.214,2.849 16.459,1.361 14.438,0.327C12.403,-0.715 10.204,-1.243 7.901,-1.243C5.633,-1.243 3.344,-0.68 1.28,0.384C-0.787,1.449 -2.528,2.966 -3.754,4.771C-3.905,4.993 -3.853,5.295 -3.636,5.453L-0.173,7.985C-0.062,8.066 0.077,8.098 0.213,8.073C0.348,8.048 0.466,7.968 0.541,7.852C2.108,5.409 4.86,3.951 7.901,3.951C9.734,3.951 11.46,4.48 12.886,5.434C12.909,5.454 12.934,5.471 12.96,5.485" style="fill:rgb(228,29,44);fill-rule:nonzero;"/>
    </g>
    <g transform="matrix(4.16667,0,0,4.16667,65.7604,50.4796)">
        <path d="M0,-5.161L-4.584,-1.378C-4.77,-1.224 -4.885,-0.998 -4.9,-0.758C-4.914,-0.517 -4.828,-0.279 -4.662,-0.105C-4.498,0.068 -4.267,0.167 -4.029,0.167L-4.027,0.167C-3.788,0.167 -3.558,0.067 -3.394,-0.107L0.68,-4.435C0.86,-4.627 0.861,-4.925 0.681,-5.117C0.501,-5.309 0.203,-5.328 0,-5.161" style="fill:rgb(228,29,44);fill-rule:nonzero;"/>
    </g>
</svg>
