<?xml version="1.0" encoding="UTF-8" standalone="no"?>
<!DOCTYPE svg PUBLIC "-//W3C//DTD SVG 1.1//EN" "http://www.w3.org/Graphics/SVG/1.1/DTD/svg11.dtd">
<svg width="100%" height="100%" viewBox="0 0 63 59" version="1.1" xmlns="http://www.w3.org/2000/svg" xmlns:xlink="http://www.w3.org/1999/xlink" xml:space="preserve" xmlns:serif="http://www.serif.com/" style="fill-rule:evenodd;clip-rule:evenodd;stroke-linejoin:round;stroke-miterlimit:2;">
    <g transform="matrix(1,0,0,1,1.927,43.4822)">
        <path d="M0,-31.032L26.351,-20.323L26.351,10.074L0,-0.636L0,-31.032ZM27.315,-41.496L52.886,-32.404L47.208,-30.096L21.342,-39.372L27.315,-41.496ZM18.476,-38.353L44.532,-29.009L40.752,-27.472L15.186,-37.183L18.476,-38.353ZM1.744,-32.404L12.384,-36.187L38.13,-26.407L27.315,-22.011L1.744,-32.404ZM35.512,7.134L28.278,10.074L28.278,-20.323L40.112,-25.132C40.119,-25.135 40.126,-25.137 40.133,-25.14L54.629,-31.032L54.629,-9.126C54.629,-8.594 55.061,-8.163 55.593,-8.163C56.125,-8.163 56.557,-8.594 56.557,-9.126L56.557,-32.464C56.557,-32.471 56.554,-32.478 56.554,-32.486C56.552,-32.554 56.545,-32.621 56.529,-32.686C56.528,-32.691 56.528,-32.696 56.527,-32.7C56.509,-32.77 56.482,-32.836 56.45,-32.899C56.441,-32.918 56.429,-32.935 56.418,-32.953C56.392,-32.997 56.363,-33.039 56.33,-33.078C56.315,-33.096 56.3,-33.114 56.283,-33.131C56.247,-33.168 56.207,-33.202 56.164,-33.234C56.152,-33.243 56.144,-33.255 56.131,-33.263C56.126,-33.267 56.12,-33.268 56.114,-33.272C56.059,-33.307 55.999,-33.338 55.935,-33.362C55.929,-33.365 55.924,-33.368 55.918,-33.371C55.917,-33.371 55.917,-33.371 55.916,-33.372L27.638,-43.426C27.429,-43.501 27.201,-43.501 26.992,-43.426L-1.286,-33.372C-1.287,-33.371 -1.288,-33.371 -1.288,-33.371C-1.294,-33.369 -1.3,-33.365 -1.306,-33.362C-1.37,-33.338 -1.429,-33.307 -1.485,-33.272C-1.49,-33.268 -1.496,-33.267 -1.502,-33.263C-1.514,-33.255 -1.523,-33.243 -1.535,-33.234C-1.578,-33.202 -1.617,-33.168 -1.654,-33.131C-1.67,-33.114 -1.686,-33.096 -1.701,-33.078C-1.734,-33.039 -1.762,-32.997 -1.788,-32.953C-1.799,-32.935 -1.811,-32.918 -1.821,-32.899C-1.853,-32.836 -1.88,-32.77 -1.897,-32.7C-1.899,-32.696 -1.898,-32.691 -1.899,-32.686C-1.915,-32.621 -1.923,-32.554 -1.924,-32.486C-1.925,-32.478 -1.927,-32.471 -1.927,-32.464L-1.927,0.013C-1.927,0.405 -1.69,0.758 -1.326,0.905L26.952,12.398C26.962,12.402 26.972,12.403 26.982,12.407C27.021,12.421 27.06,12.433 27.1,12.442C27.116,12.446 27.132,12.45 27.149,12.453C27.204,12.462 27.258,12.469 27.314,12.469L27.316,12.469C27.371,12.469 27.426,12.462 27.481,12.453C27.497,12.45 27.513,12.446 27.529,12.442C27.569,12.433 27.609,12.421 27.647,12.407C27.657,12.403 27.668,12.402 27.678,12.398L36.237,8.919C36.73,8.719 36.968,8.157 36.767,7.664C36.567,7.171 36.005,6.933 35.512,7.134" style="fill:rgb(227,33,45);fill-rule:nonzero;"/>
    </g>
    <g transform="matrix(1,0,0,1,42.6908,23.2098)">
        <path d="M0,-3.813C-0.532,-3.813 -0.964,-3.382 -0.964,-2.849L-0.964,1.809C-0.964,2.132 -0.802,2.434 -0.532,2.612C-0.372,2.718 -0.186,2.773 0,2.773C0.127,2.773 0.255,2.748 0.376,2.696L6.805,-0.024C7.161,-0.174 7.392,-0.524 7.392,-0.911L7.392,-5.623C7.392,-6.155 6.961,-6.586 6.429,-6.586C5.897,-6.586 5.465,-6.155 5.465,-5.623L5.465,-1.55L0.964,0.355L0.964,-2.849C0.964,-3.382 0.532,-3.813 0,-3.813" style="fill:rgb(227,33,45);fill-rule:nonzero;"/>
    </g>
    <g transform="matrix(1,0,0,1,23.727,39.9292)">
        <path d="M0,6.67L-7.661,3.706L-7.661,0.049L0,3.013L0,6.67ZM1.311,1.454L-8.277,-2.256C-8.573,-2.37 -8.907,-2.332 -9.169,-2.152C-9.431,-1.972 -9.588,-1.675 -9.588,-1.357L-9.588,4.367C-9.588,4.765 -9.343,5.122 -8.972,5.265L0.616,8.975C0.728,9.018 0.846,9.04 0.963,9.04C1.155,9.04 1.346,8.982 1.508,8.871C1.77,8.691 1.927,8.394 1.927,8.076L1.927,2.352C1.927,1.954 1.682,1.597 1.311,1.454" style="fill:rgb(227,33,45);fill-rule:nonzero;"/>
    </g>
    <g transform="matrix(1,0,0,1,51.2991,37.6617)">
        <path d="M0,19.118C-5.271,19.118 -9.559,14.83 -9.559,9.559C-9.559,4.288 -5.271,-0 0,-0C5.271,-0 9.559,4.288 9.559,9.559C9.559,14.83 5.271,19.118 0,19.118M0,-1.927C-6.334,-1.927 -11.486,3.225 -11.486,9.559C-11.486,15.892 -6.334,21.045 0,21.045C6.333,21.045 11.486,15.892 11.486,9.559C11.486,3.225 6.333,-1.927 0,-1.927" style="fill:rgb(227,33,45);fill-rule:nonzero;"/>
    </g>
    <g transform="matrix(1,0,0,1,56.1789,52.1932)">
        <path d="M0,-9.329L-7.379,-1.95L-9.176,-3.748C-9.552,-4.124 -10.163,-4.124 -10.539,-3.748C-10.915,-3.372 -10.915,-2.761 -10.539,-2.385L-8.06,0.094C-7.879,0.275 -7.634,0.376 -7.379,0.376C-7.123,0.376 -6.878,0.275 -6.697,0.094L1.363,-7.966C1.739,-8.343 1.739,-8.953 1.363,-9.329C0.986,-9.705 0.376,-9.705 0,-9.329" style="fill:rgb(227,33,45);fill-rule:nonzero;"/>
    </g>
</svg>
